<svg width="420" height="169" viewBox="0 0 420 169" fill="none" xmlns="http://www.w3.org/2000/svg">
<path d="M198.019 107.56V59.56L183.043 68.2V58.6L221.25 36.52V46.12L206.275 54.76V102.76L221.25 94.12V103.72L183.043 125.8V116.2L198.019 107.56ZM198.019 107.56L183.043 116.2L174.691 111.4L189.667 102.76L198.019 107.56ZM183.043 116.2V125.8L174.691 121V111.4L183.043 116.2ZM221.25 94.12L206.275 102.76L198.019 97.96L212.995 89.32L221.25 94.12ZM198.019 59.56V107.56L189.667 102.76V54.76L198.019 59.56ZM221.25 36.52L183.043 58.6L174.691 53.8L212.995 31.72L221.25 36.52ZM183.043 58.6V68.2L174.691 63.4V53.8L183.043 58.6ZM267.932 37.48C270.108 36.2 272.028 36.04 273.692 37C275.356 37.96 276.188 39.72 276.188 42.28V94.12C276.188 95.848 275.804 97.672 275.036 99.592C274.268 101.448 273.244 103.208 271.964 104.872C270.748 106.472 269.404 107.688 267.932 108.52L254.588 116.2C252.412 117.48 250.492 117.64 248.828 116.68C247.164 115.72 246.332 113.96 246.332 111.4L267.932 98.92V47.08L246.332 59.56V121L237.98 125.8V54.76L267.932 37.48ZM267.932 47.08V98.92L259.58 94.12V42.28L267.932 47.08ZM267.932 98.92L246.332 111.4L237.98 106.6L259.58 94.12L267.932 98.92ZM246.332 111.4C246.332 113.96 247.164 115.72 248.828 116.68L240.476 111.88C238.812 110.92 237.98 109.16 237.98 106.6L246.332 111.4ZM273.692 37C272.028 36.04 270.108 36.2 267.932 37.48L237.98 54.76L229.628 49.96L259.58 32.68C261.756 31.4 263.708 31.24 265.436 32.2L273.692 37ZM237.98 54.76V125.8L229.628 121V49.96L237.98 54.76Z" fill="white"/>
<path d="M2 123V51L40.0887 33L52.256 42V98.5L48.0239 107.5L25.8055 120L20.5154 117.5V123L12.0512 128L2 123Z" stroke="#FF700B" stroke-width="3"/>
<path d="M82.9386 101L78.7065 98.5L78.1775 99V107L95.6348 97.5L104.628 102.5V112L76.0614 127.5L73.9454 128L60.7201 120V77.5L67.5973 67L90.3447 55.5H92.4607L103.57 61.5L104.628 64.5L104.099 83.5L98.2799 93L82.9386 101Z" stroke="#FF700B" stroke-width="3"/>
<path d="M113.621 74.5L122.085 70L131.078 74.5V112L139.543 107V60.5L148.536 55.5L157 60.5V101L155.413 105L151.181 110L148.536 112.5L147.478 117L143.246 124L137.956 127.5L135.311 128L114.15 116L113.092 112.5L113.621 74.5Z" stroke="#FF700B" stroke-width="3"/>
</svg>
