<svg width="167" height="62" viewBox="0 0 167 62" fill="none" xmlns="http://www.w3.org/2000/svg">
<path d="M24.0859 54V0.899997H29.4859V54H24.0859ZM32.1859 54V0.899997H40.2859V54H32.1859ZM45.6859 54V0.899997H48.3859V54H45.6859ZM53.793 54V0.899997H61.893V54H53.793ZM67.293 54V0.899997H69.993V54H67.293ZM72.693 54V0.899997H78.093V54H72.693ZM83.5 54V0.899997H86.2V54H83.5ZM91.6 54V0.899997H99.7V54H91.6ZM102.4 54V0.899997H107.8V54H102.4ZM113.207 54V0.899997H118.607V54H113.207ZM124.007 54V0.899997H126.707V54H124.007ZM132.107 54V0.899997H140.207V54H132.107Z" fill="white"/>
</svg>
